<svg xmlns="http://www.w3.org/2000/svg" viewBox="0 0 542.11 231.6"><defs><style>.cls-1{fill:#fff;}.cls-2{fill:#d3d3d3;}</style></defs><g id="OBJECTS"><path class="cls-1" d="M533.59,144.47c-9.13,3.66-44.77,20.75-50.3,23.41-2.38-7.15-6.61-13.66-9.47-12,0,0-3.82,4.13-7.34,14.53-.25.74-.44,1.43-.59,2.08a141.9,141.9,0,0,0-19.33,6.36L350.3,140.2c-.12-1.1-.31-2.26-.54-3.48-2.42-12.48-6.49-22.6-11.49-30l72.44-47.5-.07-.14a16.53,16.53,0,0,0,2.32.14c9.26-.15,10.8-2.44,11.57-6.76.62-3.45.25-15.08.08-19.64,2.41,2.33,4.79,4.43,6.4,5.72,6,4.78,31.79,7.72,36.58,7.41s-8.8-8.49-23.92-15.9a118.83,118.83,0,0,0-23.82-9,12.6,12.6,0,0,0-.41-1.46c-2.47-7.29-5.15-10.19-5.15-10.19-2-1.19-5,3.38-6.64,8.39-3.88-1.86-28.88-13.85-35.27-16.41-6.95-2.77-7.87-1.23-2.63,3.7s18.67,16.36,23.77,16.36c4.11,0,10.75.31,13.15.44a8,8,0,0,0,0,2.27h0a4.38,4.38,0,0,0-3.37,4.39V46.26L315,85.93c-5.92-3.24-17.06-5.79-43.9-5.79-25.48,0-37.82,2.3-45,5.3L138.87,46.26V28.53a4.38,4.38,0,0,0-3.37-4.39h0a8,8,0,0,0,0-2.27c2.4-.13,9-.44,13.15-.44,5.09,0,18.52-11.42,23.76-16.36s4.33-6.47-2.62-3.7c-6.4,2.56-31.4,14.55-35.27,16.41-1.67-5-4.64-9.58-6.64-8.39,0,0-2.68,2.9-5.15,10.19a12.6,12.6,0,0,0-.41,1.46,118.83,118.83,0,0,0-23.82,9C83.32,37.48,69.74,45.66,74.52,46s30.55-2.63,36.57-7.41c1.62-1.29,4-3.39,6.41-5.72-.17,4.56-.54,16.19.07,19.64.78,4.32,2.32,6.61,11.58,6.76a16.62,16.62,0,0,0,2.32-.14l-.06.14,70.44,46.19c-4,7.16-6.64,17.4-9.5,31.29-.25,1.23-.44,2.39-.58,3.49L95.55,178.88a141.9,141.9,0,0,0-19.33-6.36c-.15-.65-.34-1.34-.59-2.08-3.51-10.4-7.34-14.53-7.34-14.53-2.86-1.69-7.09,4.82-9.47,12-5.53-2.66-41.17-19.75-50.29-23.41-9.91-3.95-11.22-1.76-3.74,5.29s26.62,23.32,33.88,23.32c5.84,0,15.24.44,18.71.61a10.84,10.84,0,0,0-.05,3.25,6.24,6.24,0,0,0-4.8,6.26v34.32s.66,9.68,13.86,9.46,15.4-3.48,16.5-9.63a53.05,53.05,0,0,0,.46-7.2L106.41,203c14.13,3.46,33.15,5.36,37.87,5.06s-2.66-5.65-14.43-12.33l88.42-27.41c3.84.76,8.19,1.36,12.7,1.83V195a19.36,19.36,0,0,0,8.52,16,34.53,34.53,0,0,0,63.14,0,19.36,19.36,0,0,0,8.51-16V170.15c4.51-.47,8.86-1.07,12.7-1.83l88.42,27.41c-11.76,6.68-19,12-14.43,12.33s23.74-1.6,37.87-5.06l23.06,7.15a53.05,53.05,0,0,0,.46,7.2c1.1,6.15,3.3,9.41,16.5,9.63s13.86-9.46,13.86-9.46V183.2a6.24,6.24,0,0,0-4.8-6.26,11.14,11.14,0,0,0,0-3.25c3.46-.17,12.86-.61,18.7-.61,7.26,0,26.41-16.28,33.89-23.32S543.49,140.52,533.59,144.47ZM395.87,58.85l3.31,1.81-64,38.82-5.73-5ZM142,60.66l3.31-1.81L210.06,93.6,206,98.23ZM128.62,189.88,123,187.63l78.5-28.07,8,4Zm142.44,32.17a25,25,0,1,1,25-25A25,25,0,0,1,271.06,222.05Zm60.36-69.78c-5.71,5.78-61,4.47-61,4.47s-55.29,1.31-61-4.47c-5.41-5.45,4.6-35.93,12.89-44.83,0,0-17.7,37.62-7.64,40,10.32,2.4,55.75,3.63,55.75,3.63s45.43-1.23,55.74-3.63c10.07-2.35-7.63-40-7.63-40C326.82,116.34,336.82,146.82,331.42,152.27Zm84.16,37.61-80.86-26.33,8-4,78.5,28.07Z"/><path class="cls-2" d="M279.26,196.16a7.93,7.93,0,0,1-4.72-14.32,15.35,15.35,0,0,0-3.48-.42,15.89,15.89,0,1,0,14.87,11.09A7.94,7.94,0,0,1,279.26,196.16Z"/></g></svg>